/* XPM */
static char *mosh_xterm[] = {
/* columns rows colors chars-per-pixel */
"32 32 98 2 ",
"   c gray1",
".  c #040404",
"X  c gray2",
"o  c #060606",
"O  c #070707",
"+  c gray3",
"@  c #090909",
"#  c gray5",
"$  c #0E0E0E",
"%  c gray6",
"&  c #101010",
"*  c #111111",
"=  c gray7",
"-  c #131313",
";  c gray8",
":  c #151515",
">  c #161616",
",  c gray9",
"<  c #181818",
"1  c #191919",
"2  c gray10",
"3  c gray11",
"4  c #1D1D1D",
"5  c #1E1E1E",
"6  c gray12",
"7  c #202020",
"8  c gray13",
"9  c #222222",
"0  c #232323",
"q  c gray14",
"w  c #252525",
"e  c gray15",
"r  c #272727",
"t  c #282828",
"y  c gray16",
"u  c #2A2A2A",
"i  c gray17",
"p  c #2C2C2C",
"a  c #2D2D2D",
"s  c #2F2F2F",
"d  c gray19",
"f  c #313131",
"g  c #323232",
"h  c gray20",
"j  c #343434",
"k  c #3E3E3E",
"l  c gray25",
"z  c #4C4C4C",
"x  c #505050",
"c  c #555555",
"v  c #565656",
"b  c #5A5A5A",
"n  c #656565",
"m  c gray40",
"M  c #6A6A6A",
"N  c #6D6D6D",
"B  c gray43",
"V  c #6F6F6F",
"C  c gray44",
"Z  c #717171",
"A  c #727272",
"S  c gray45",
"D  c #747474",
"F  c gray46",
"G  c #767676",
"H  c #777777",
"J  c #797979",
"K  c gray48",
"L  c #7B7B7B",
"P  c #7C7C7C",
"I  c gray49",
"U  c gray50",
"Y  c #868686",
"T  c gray59",
"R  c #979797",
"E  c gray60",
"W  c #9A9A9A",
"Q  c #9B9B9B",
"!  c gray61",
"~  c gray67",
"^  c gray",
"/  c #CACACA",
"(  c #CDCDCD",
")  c #D0D0D0",
"_  c gray87",
"`  c gray88",
"'  c gray89",
"]  c gray90",
"[  c #E9E9E9",
"{  c #EAEAEA",
"}  c gray93",
"|  c #EFEFEF",
" . c #F1F1F1",
".. c gray96",
"X. c #F9F9F9",
"o. c #FDFDFD",
"O. c white",
"+. c None",
/* pixels */
"+.+.+.+.+.+.+.+.+.+.+.+.+.+.+.+.+.+.+.+.+.+.+.+.+.+.+.+.+.+.+.+.",
"+.+.+.+.+.+.+.+.+.+.+.+.+.+.+.+.+.+.+.+.+.+.+.+.+.+.+.+.+.+.+.+.",
"+.+.+.+.+.+.+.+.+.+.+.+.+.+.+.+.+.+.+.+.+.+.+.+.+.+.+.+.+.+.+.+.",
"+.+.+.+.+.+.+.+.+.+.+.+.+.+.+.+.+.+.+.+.+.+.+.+.+.+.+.+.+.+.+.+.",
"+.+.+.+.O @ @ O @ @ @ @ @ @ @ @ @ O @ @ @ @ @ @ O @ @ O +.+.+.+.",
"+.+.+.O v T Q Q ! ! Q ! Q ! ! ! ! ! ! ! ! ! ! ! ! Q T v @ +.+.+.",
"+.+.+.O U 4 < , < < < < < < < < < < < < < < < < < , 4 U O +.+.+.",
"+.+.+.O U , f f j f j f j j j j j j j j j f j f f f , U O +.+.+.",
"+.+.+.O J , a a f a f f f f f f f f f f f f f f f a , J @ +.+.+.",
"+.+.+.O J , a a i o.i f f f f f f f f f f f a a a a , J O +.+.+.",
"+.+.+.O J - i n ' o...! a a a a f a a a a a i i a i - J O +.+.+.",
"+.+.+.O J , w ( ^ X.x z w a a a a a i a i a i i i i , G O +.+.+.",
"+.+.+.O G - w Y | ..n 9 i i w i i i i i i i i i i i - G O +.+.+.",
"+.+.+.O G - 9 4 b  .[ Q w i i i i i w i i i w i w i - G O +.+.+.",
"+.+.+.O G - w M l | ~ ( 9 w i i w i i i i w i w w i - G O +.+.+.",
"+.+.+.O G - 9 Q _ [ / v 9 i w i i i w w w i w w i w - G O +.+.+.",
"+.+.+.O S - 9 < , ] , 4 9 i i w w w i w i w w w w i - G O +.+.+.",
"+.+.+.O S - 9 9 4 , 4 9 9 _ _ _ ' _ 9 w w w w w w w % G O +.+.+.",
"+.+.+.O S - 9 9 9 4 9 w 4 , , , - , 4 w w w w w 9 9 - G O +.+.+.",
"+.+.+.O S % 9 9 9 w w 9 9 < 4 4 4 4 9 w w 9 9 9 9 9 % S O +.+.+.",
"+.+.+.O S % 4 9 9 9 9 9 9 9 9 9 9 9 9 9 9 9 9 9 9 9 - N O +.+.+.",
"+.+.+.O S % 9 9 9 9 9 4 9 9 9 4 4 9 9 9 9 4 9 9 9 4 % S   +.+.+.",
"+.+.+.O S % 4 9 9 9 9 4 4 9 4 9 9 9 4 9 9 9 9 9 4 9 % S O +.+.+.",
"+.+.+.  N % 9 4 4 4 4 9 9 4 9 4 4 9 9 4 4 4 4 4 9 4 % N O +.+.+.",
"+.+.+.O N % 4 4 4 4 4 9 4 9 4 9 9 4 9 4 9 4 4 9 4 4 % N O +.+.+.",
"+.+.+.O N % 4 4 4 4 4 4 4 4 9 4 4 4 4 4 4 4 4 4 4 4 % N O +.+.+.",
"+.+.+.  N % 4 4 4 4 4 4 4 < 4 < 4 4 4 4 4 4 4 < 4 < % N O +.+.+.",
"+.+.+.O M - @ % @ % % @ % % % % % % % @ % % % @ % % - M   +.+.+.",
"+.+.+.  k N S S S S G S S S G S S S S S S S G S G S N k   +.+.+.",
"+.+.+.+.O O O O O O O O O O O O O O O O O O O O O O O O +.+.+.+.",
"+.+.+.+.+.+.+.+.+.+.+.+.+.+.+.+.+.+.+.+.+.+.+.+.+.+.+.+.+.+.+.+.",
"+.+.+.+.+.+.+.+.+.+.+.+.+.+.+.+.+.+.+.+.+.+.+.+.+.+.+.+.+.+.+.+."
};
