/* XPM */
static char *gnome_xterm[] = {
/* columns rows colors chars-per-pixel */
"48 48 199 2 ",
"   c #000000",
".  c #0C0000",
"X  c #0E090D",
"o  c #140000",
"O  c #1A0000",
"+  c #161515",
"@  c #181212",
"#  c #1E1D1E",
"$  c #240000",
"%  c #280000",
"&  c #260C0C",
"*  c #2D0E0E",
"=  c #340000",
"-  c #330D0D",
";  c #2C1215",
":  c #3F1E1E",
">  c #261F23",
",  c #262526",
"<  c #272A27",
"1  c #2C2D2C",
"2  c #342323",
"3  c #2E322E",
"4  c #333433",
"5  c #3D3034",
"6  c #3C373C",
"7  c #3A393A",
"8  c #440000",
"9  c #410B0B",
"0  c #4C0C0D",
"q  c #5F0000",
"w  c #401A17",
"e  c #5B1816",
"r  c #630000",
"t  c #610909",
"y  c #740202",
"u  c #7D0809",
"i  c #621111",
"p  c #751F1D",
"a  c #482A2A",
"s  c #502325",
"d  c #4C3436",
"f  c #583030",
"g  c #513F3C",
"h  c #773F3C",
"j  c #793B39",
"k  c #41413B",
"l  c #4C423E",
"z  c #55403D",
"x  c #66453F",
"c  c #7D413F",
"v  c #413C41",
"b  c #414141",
"n  c #464945",
"m  c #4C4C46",
"M  c #494549",
"N  c #494B49",
"B  c #534642",
"V  c #524F4B",
"C  c #4F534F",
"Z  c #53514C",
"A  c #515351",
"S  c #5D5151",
"D  c #515956",
"F  c #5C5C55",
"G  c #5A5C59",
"H  c #664E4C",
"J  c #7A4C4A",
"K  c #65504D",
"L  c #615850",
"P  c #605F58",
"I  c #745556",
"U  c #7F5151",
"Y  c #745B5A",
"T  c #596259",
"R  c #7A7D4A",
"E  c #66645E",
"W  c #6C655B",
"Q  c #69695F",
"!  c #76605B",
"~  c #536B67",
"^  c #616361",
"/  c #6A6563",
"(  c #6E6C63",
")  c #696B69",
"_  c #726767",
"`  c #726B64",
"'  c #726E6A",
"]  c #74726D",
"[  c #79756D",
"{  c #79796D",
"}  c #717471",
"|  c #7A7472",
" . c #7B7A74",
".. c #797A79",
"X. c #850000",
"o. c #8C0000",
"O. c #8B0A0A",
"+. c #930000",
"@. c #9A0303",
"#. c #970D0C",
"$. c #831D1D",
"%. c #8D1919",
"&. c #9A1716",
"*. c #A40101",
"=. c #A90000",
"-. c #B00303",
";. c #BB0404",
":. c #B0110F",
">. c #AC1E1D",
",. c #B41414",
"<. c #8B201E",
"1. c #B72907",
"2. c #862523",
"3. c #882A27",
"4. c #922424",
"5. c #962928",
"6. c #992D2D",
"7. c #823737",
"8. c #8B3E3E",
"9. c #C30000",
"0. c #C80101",
"q. c #C50708",
"w. c #C30909",
"e. c #CF0B0B",
"r. c #D40202",
"t. c #DD0101",
"y. c #D30807",
"u. c #D50C0C",
"i. c #DD0909",
"p. c #C61414",
"a. c #CA1110",
"s. c #E40303",
"d. c #EC0000",
"f. c #E00808",
"g. c #F40000",
"h. c #F80000",
"j. c #8B403F",
"k. c #9F6B60",
"l. c #997C6F",
"z. c #817A73",
"x. c #837E7B",
"c. c #A76F68",
"v. c #AF7B6F",
"b. c #888561",
"n. c #85837E",
"m. c #8B847D",
"M. c #868486",
"N. c #8B8681",
"B. c #878E87",
"V. c #8D8B85",
"C. c #8E8C8D",
"Z. c #928C84",
"A. c #928E8B",
"S. c #949287",
"D. c #95938C",
"F. c #9B948D",
"G. c #9C988E",
"H. c #969496",
"J. c #999591",
"K. c #9C9B95",
"L. c #9E9C9D",
"P. c #A78A82",
"I. c #A29B93",
"U. c #A19D99",
"Y. c #A4A196",
"T. c #A7A098",
"R. c #A9A399",
"E. c gray65",
"W. c #A9A6A2",
"Q. c #AAAAA3",
"!. c #B2ADA3",
"~. c #B2AEAA",
"^. c #B1B1A9",
"/. c #BAB4AA",
"(. c #BCB8AC",
"). c #B6B5B6",
"_. c #BBB7B3",
"`. c #B6BAB6",
"'. c #BDBBB5",
"]. c #C6BEB5",
"[. c #BEC3BE",
"{. c #C7C3B6",
"}. c #C7C5BE",
"|. c #CFC7BE",
" X c #CFCBBE",
".X c #C7C3C7",
"XX c #CFCFC7",
"oX c #D7CFC7",
"OX c #D7D3C7",
"+X c #D7D7CF",
"@X c #DFD7CF",
"#X c #DFDBCF",
"$X c #DFDED7",
"%X c #E7DFD7",
"&X c #E7E3D7",
"*X c #E7E7DF",
"=X c #EFEBDF",
"-X c #E7E7E7",
";X c None",
/* pixels */
";X;X;X;X;X;X;X;X;X;X;X;X;X;X;X;X;X;X;X;X;X;X;X;X;X;X;X;X;X;X;X;X;X;X;X;X;X;X;X;X;X;X;X;X;X;X;X;X",
";X;X;X;X;X;X;X;X;X;X;X;X;X;X;X;X;X;X;X;X;X;X;X;X;X;X;X;X;X;X;X;X;X;X;X;X;X;X;X;X;X;X;X;X;X;X;X;X",
";X;X;X;X;X;X;X;X;X;X;X;X;X;X;X;X;X;X;X;X;X;X;X;X;X;X;X;X;X;X;X;X;X;X;X;X;X;X;X;X;X;X;X;X;X;X;X;X",
";X;X;X;X;X;X;X;X;X;X;X;X;X;X;X;X;X;X;X;X;X;X;X;X;X;X;X;X;X;X;X;X;X;X;X;X;X;X;X;X;X;X;X;X;X;X;X;X",
";X;X;X;X;X;X;X;X;X;X;X;X;X;X;X;X;X;X;X;X;X;X;X;X;X;X;X;X;X;X;X;X;X;X;X;X;X;X;X;X;X;X;X;X;X;X;X;X",
";X;X;X;X;X;X;X;X;X;X;X;X;X;X;X;X;X;X;X;X;X;X;X;X;X;X;X;X;X;X;X;X;X;X;X;X;X;X;X;X;X;X;X;X;X;X;X;X",
";X;X;X;X;X;X;X;X;X;X;X;X;X;X;X;X;X;X;X;X;X;X;X;X;X;X;X;X;X;X;X;X;X;X;X;X;X;X;X;X;X;X;X;X;X;X;X;X",
";X;X;X;X;X;X;X;X;X;X;X;X;X;X;X;X;X;X;X;X;X;X;X;X;X;X;X;X;X;X;X;X;X;X;X;X;X;X;X;X;X;X;X;X;X;X;X;X",
";X;X;X;X;X;X;X;X;X;X;X;X;X;X;X;X;X;X;X;X;X;X;X;X;X;X;X;X;X;X;X;X;X;X;X;X;X;X;X;X;X;X;X;X;X;X;X;X",
";X;X;X;X;X;X;X;X+X=X=X=X=X=X*X*X&X&X$X$X$X@X+X+XOXoXXX X X|.}.}.].'._.(.!.K.Z. .;X;X;X;X;X;X;X;X",
";X;X;X;X;X;X;X+X=X=X=X=X=X*X-X%X&X$X$X$X@X+X+X+XXXXX X X|.}.}.].[.'._.^.~.Q.R.x.;X;X;X;X;X;X;X;X",
";X;X;X;X;X;X;X=X=X).............} } } ) ) ) ^ ^ ^ G G G G A A N N N M b 7 ..U.Z.  ;X;X;X;X;X;X;X",
";X;X;X;X;X;X;X=X=X..C..XL.H.C.M.M.C.M.} } } ) ) ^ ^ ^ A N N N M N M M v v 6 U.D.    ;X;X;X;X;X;X",
";X;X;X;X;X;X;X=X=XC.).-X`.E.M.......} } ) ^ ^ ^ G G G A A N N M M M g 6 6 4 G.S.    ;X;X;X;X;X;X",
";X;X;X;X;X;X;X=X=X..E.[.H.M.H.H.) ..H.H.H.} M.C.../ C.M.L.^ G C.G D v v 4 4 G.A.    ;X;X;X;X;X;X",
";X;X;X;X;X;X;X=X-X| E.`.} } M.) ) ) ) ^ ^ G G G A A A A N N M N b v v 7 4 3 D.A.    ;X;X;X;X;X;X",
";X;X;X;X;X;X;X-X-X..L.H.B.M...C.B.H.} H.} G ..A A ..N ^ G M M M v v 7 4 3 1 D.V.    ;X;X;X;X;X;X",
";X;X;X;X;X;X;X&X&X..C.C.} ) ) ) ^ ^ ^ T G D A A A A N N M M b v 6 6 6 1 1 1 D.N.    ;X;X;X;X;X;X",
";X;X;X;X;X;X;X&X$XM.H.H.L.C...H.} } M.) ....S d K H z B D ) ..^ C C 3 1 1 < Z.N.      % ;X;X;X;X",
";X;X;X;X;X;X;X%X$X} M...) ) ^ ^ ^ G T G D C f w.y.r.r.w.a v 6 7 6 3 4 4 < , B.N.    8 r.r ;X;X;X",
";X;X;X;X;X;X;X$X$X} ..) ..^ ^ ^ G G D A A A M p h.h.h.h.q.5 7 7 3 4 1 < , , V.N.  $ r.@.;X;X;X;X",
";X;X;X;X;X;X;X$X$X..M.) M.} H.} ) C.) ) M.} ^ | :.h.h.h.h.%.G 3 ^ 3 < , , > V.m.  =.r.;X;X;X;X;X",
";X;X;X;X;X;X;X#X+X) } ^ ^ ^ G G G D C A N N N M d w.h.h.h.d.e 1 4 < , , , # N.| y t.= ;X;X;X;X;X",
";X;X;X;X;X;X;X+X+X) } ^ ^ G G ) ) ) A N ^ M M M 7 s s.h.h.h.y.w < , , , # # z.J s.r   ;X;X;X;X;X",
";X;X;X;X;X;X;X+XOX^ ) ^ M.) ..) ) ..} ^ ^ ) ) G ) ^ 2.h.h.h.h.;., , , # # # Y u.=.    ;X;X;X;X;X",
";X;X;X;X;X;X;XOXoX^ ^ ^ G G A A C N N N M M b v v 7 4 #.h.h.h.h.O., # # # + a.u.o     ;X;X;X;X;X",
";X;X;X;X;X;X;XoXXX^ G G G D C A N N N M M b v v 7 7 3 2 ;.h.h.h.s.0 # # + y f.h       ;X;X;X;X;X",
";X;X;X;X;X;X;XXX XG G G C C C A N M M M b v v 7 7 3 3 3 : s.h.h.h.r.; + 9 t.5.'       ;X;X;X;X;X",
";X;X;X;X;X;X;X X XG G D D A N N N M M b v v 7 7 3 3 3 1 , i g.h.h.g.t * r.=._ |       ;X;X;X;X;X",
";X;X;X;X;X;X;X X|.G C C C A N N M M b v v 7 4 3 4 3 1 , < > O.h.h.@.& -.r.& | |       ;X;X;X;X;X",
";X;X;X;X;X;X;X|..XC A C.H.H.M.C...L.C...H.} M.L.} ) C.) ..M.I i.a.I 4.h.$.X | |       ;X;X;X;X;X",
";X;X;X;X;X;X;X}.].H.A n N M M M v v 6 7 6 4 1 3 < , , , , # u t.- 9 s.h.0.g | |       ;X;X;X;X;X",
";X;X;X;X;X;X;X!.{._._.(./.^.~.!.!.W.W.W.R.L.U.U.I.J.J.J.V.j.s.j.! u.h.h.h.,./ E       ;X;X;X;X;X",
";X;X;X;X;X;X;X;XF.~.!.Q.Q.W.R.Y.U.v.P.G.m.c.l.S.D.k.l.n.U f.3.| R 1.h.h.h.g.<.Z       ;X;X;X;X;X",
";X;X;X;X;X;X;X;X;X~ b.K.K.K.G.F.D.J.D.S.S.V.A.N.N.N.x.Y a.>._  .' H e.h.h.h.s.8       ;X;X;X;X;X",
";X;X;X;X;X;X;X;X;X;X        b k m ' ( m F { { F W [ E :.y.B m Z     = h.h.h.h.r.O     ;X;X;X;X;X",
";X;X;X;X;X;X;X;X;X;X;X      V m E F Z C P T A E Q L &.y.x _ F F       r g.h.h.h.9..   ;X;X;X;X;X",
";X;X;X;X;X;X;X;X;X;XD x.N.S.Z.V.V.V.n.N.m.n.x. .| 7.f.j ' [ ] ' ( F P l +.h.h.h.g.o.;X;X;X;X;X;X",
";X;X;X;X;X;X;X;X;X;XT B.C.G.F.D.S.S.V.A.V.N.N.n.J i.6.| x.z. .] ' ( Z Z o 9.h.h.h.d.y ;X;X;X;X;X",
";X;X;X;X;X;X;X;X;X;X;X;X;X                    o r.+.                      = s.h.h.h.g.;X;X;X;X;X",
";X;X;X;X;X;X;X;X;X;X;X;X;X;X                . *.;.o                       ;Xy h.h.h.h.0.;X;X;X;X",
";X;X;X;X;X;X;X;X;X;X;X;X;X;X;X;X;X          $ r O               ;X;X;X;X;X;X;Xr X.X.o.+.;X;X;X;X",
";X;X;X;X;X;X;X;X;X;X;X;X;X;X;X;X;X;X;X;X;X;X;X;X;X;X;X;X;X;X;X;X;X;X;X;X;X;X;X;X;X;X;X;X;X;X;X;X",
";X;X;X;X;X;X;X;X;X;X;X;X;X;X;X;X;X;X;X;X;X;X;X;X;X;X;X;X;X;X;X;X;X;X;X;X;X;X;X;X;X;X;X;X;X;X;X;X",
";X;X;X;X;X;X;X;X;X;X;X;X;X;X;X;X;X;X;X;X;X;X;X;X;X;X;X;X;X;X;X;X;X;X;X;X;X;X;X;X;X;X;X;X;X;X;X;X",
";X;X;X;X;X;X;X;X;X;X;X;X;X;X;X;X;X;X;X;X;X;X;X;X;X;X;X;X;X;X;X;X;X;X;X;X;X;X;X;X;X;X;X;X;X;X;X;X",
";X;X;X;X;X;X;X;X;X;X;X;X;X;X;X;X;X;X;X;X;X;X;X;X;X;X;X;X;X;X;X;X;X;X;X;X;X;X;X;X;X;X;X;X;X;X;X;X",
";X;X;X;X;X;X;X;X;X;X;X;X;X;X;X;X;X;X;X;X;X;X;X;X;X;X;X;X;X;X;X;X;X;X;X;X;X;X;X;X;X;X;X;X;X;X;X;X"
};
